<svg id="Ebene_1" data-name="Ebene 1" xmlns="http://www.w3.org/2000/svg" xmlns:xlink="http://www.w3.org/1999/xlink" viewBox="0 0 107.45 36.26"><defs><style>.cls-1{fill:none;}.cls-2{clip-path:url(#clip-path);}.cls-3{fill:#00205c;}</style><clipPath id="clip-path" transform="translate(-4.12 -3.43)"><polygon class="cls-1" points="0 0.58 201.39 -0.44 201.39 201.72 -0.92 201.72 0 0.58"/></clipPath></defs><title>EFS_Blau</title><g class="cls-2"><path class="cls-3" d="M54.36,18.84V13.1H74.71c.71,0,1,.32,1.16,1.55h.77V3.43h-.77c-.19,1.48-.45,1.8-1.16,1.8H42.63V6c1.61.13,1.81.58,1.81,1.16V31.35l-28.83,0v-6h12a1.74,1.74,0,0,1,1.94,1.48h.77V16.74h-.77a1.72,1.72,0,0,1-1.94,1.48h-12V12.87H36.3c.71,0,1,.32,1.16,1.81h.77V3.45h-.77C37.27,4.93,37,5.26,36.3,5.26H4.12V6c1.61.13,1.81.58,1.81,1.16V37.24c0,.58-.19,1-1.81,1.16v.75H56.17v-.77c-1.61-.13-1.81-.58-1.81-1.16V26.45l5.55,0c1.48,0,14.43,13.26,35.41,13.26,14,0,16.25-6.13,16.25-11.67,0-14.83-23.47-7.8-23.47-13.54,0-1.48.65-3,6.25-3,6.06,0,11.48,1.81,11.48,3.42v.71l.78.39,4.45-9-.71-.26a2.17,2.17,0,0,1-1.74,1c-1.74,0-6.19-2.71-15-2.71-9.48,0-14.38,4.45-14.38,10.9,0,12.44,23.34,7.16,23.34,11.93,0,2.84-1,4.38-7.41,4.38C78,32.22,65.7,20.6,65.7,18.86Z" transform="translate(-4.12 -3.43)"/></g></svg>